<svg width="300" height="300" xmlns="http://www.w3.org/2000/svg">
 <!-- Created with Method Draw - http://github.com/duopixel/Method-Draw/ -->

 <g id="Layer_1">
  <title>Layer 1</title>
  <path transform="rotate(8 150.84 152.298)" stroke="#ff0000" id="svg_1" d="m150.84962,81.19461c-41.57177,0 -75.24012,31.81931 -75.24012,71.10799c0,39.26158 33.66835,71.09896 75.24012,71.09896c41.53354,0 75.22101,-31.83738 75.22101,-71.09896c0.00956,-39.28868 -33.66835,-71.10799 -75.22101,-71.10799zm0,124.15222c-31.00203,-0.07226 -56.05977,-23.75384 -56.13622,-53.0352c0.0669,-29.29039 25.1342,-52.98101 56.13622,-53.05326c30.98291,0.07226 56.04066,23.76288 56.10755,53.05326c-0.0669,29.28135 -25.12464,52.96294 -56.10755,53.0352zm0,-128.91202c5.28487,0 9.55673,-4.04628 9.55673,-9.04091l0,-43.81365c-0.01911,-4.99463 -4.28141,-9.03188 -9.55673,-9.03188c-5.28487,0 -9.56629,4.05531 -9.55673,9.04994l0,43.80462c0,4.97657 4.27186,9.03188 9.55673,9.03188zm30.70577,5.76234c1.19459,0.47869 2.43697,0.68642 3.65067,0.69545c3.76535,0 7.3109,-2.10443 8.83997,-5.5817l17.73729,-40.48992c2.00691,-4.61529 -0.29626,-9.88991 -5.17019,-11.79563c-4.88349,-1.90573 -10.47417,0.27999 -12.5002,4.88625l-17.72773,40.49895c-2.01647,4.60626 0.29626,9.88991 5.17019,11.7866zm26.04209,16.44705c1.86356,1.75218 4.31008,2.64634 6.75661,2.64634s4.89304,-0.88512 6.75661,-2.64634l32.77958,-31.00644c3.73668,-3.52243 3.72712,-9.23961 0,-12.78011c-3.74624,-3.52243 -9.79565,-3.52243 -13.52277,0.01806l-32.77002,30.98838c-3.73668,3.53146 -3.73668,9.24864 0,12.78011zm17.42192,24.60284c1.50996,3.47727 5.07462,5.57267 8.82086,5.57267c1.2137,0 2.45608,-0.2258 3.66023,-0.70449l42.81414,-16.7722c4.88349,-1.90573 7.19622,-7.19841 5.17019,-11.80467s-7.60716,-6.79197 -12.49064,-4.87722l-42.8237,16.7722c-4.87393,1.91476 -7.1771,7.20744 -5.15108,11.8137zm62.01361,19.96949l-46.35969,0.00903c-5.27531,0 -9.55673,4.04628 -9.53762,9.04091c0,4.99463 4.27186,9.02285 9.53762,9.02285l46.36925,-0.01806c5.28487,0 9.54717,-4.05531 9.54717,-9.03188c0,-4.99463 -4.28141,-9.04091 -9.55673,-9.02285zm-6.6706,49.92823l-42.83326,-16.74511c-4.89304,-1.91476 -10.48373,0.27096 -12.49064,4.88625c-2.01647,4.61529 0.29626,9.89894 5.17019,11.8137l42.83326,16.74511c1.20415,0.46063 2.44652,0.67739 3.66023,0.67739c3.75579,0 7.3109,-2.0954 8.83997,-5.57267c2.00691,-4.61529 -0.31537,-9.90797 -5.17975,-11.80467zm-59.19438,12.76205c-3.73668,-3.53146 -9.77653,-3.53146 -13.51321,0.00903c-3.73668,3.52243 -3.72712,9.23058 0,12.76205l32.81781,30.97032c1.86356,1.76122 4.30053,2.64634 6.74705,2.64634s4.9026,-0.88512 6.76616,-2.64634c3.73668,-3.5405 3.71757,-9.25768 0,-12.78011l-32.81781,-30.96128zm-27.0551,21.34233c-2.01647,-4.61529 -7.60716,-6.79197 -12.49064,-4.88625c-4.87393,1.91476 -7.18666,7.19841 -5.16063,11.8137l17.77551,40.46282c1.51952,3.47727 5.07462,5.57267 8.83997,5.57267c1.22326,0 2.46564,-0.21677 3.66023,-0.68642c4.88349,-1.90573 7.18666,-7.19841 5.16063,-11.82273l-17.78507,-40.45379zm-43.16774,0.93028c-5.28487,0 -9.55673,4.04628 -9.55673,9.03188l0.03823,43.81365c0,4.99463 4.29097,9.02285 9.55673,9.02285c5.28487,0 9.55673,-4.04628 9.53762,-9.03188l-0.02867,-43.82268c0,-4.96753 -4.29097,-9.02285 -9.54717,-9.01382zm-30.73444,-5.74428c-4.87393,-1.89669 -10.45506,0.27999 -12.48109,4.90431l-17.69906,40.48992c-2.00691,4.61529 0.31537,9.89894 5.1893,11.80467c1.19459,0.46966 2.42741,0.68642 3.65067,0.68642c3.74624,0 7.3109,-2.11346 8.83042,-5.59073l17.70862,-40.50798c2.01647,-4.60626 -0.31537,-9.88088 -5.19886,-11.7866zm-26.05164,-16.41093c-3.74624,-3.53146 -9.79565,-3.5134 -13.52277,0.01806l-32.74135,31.00644c-3.73668,3.5405 -3.71757,9.23961 0.01911,12.78011c1.86356,1.75218 4.30053,2.63731 6.74705,2.63731c2.45608,0 4.9026,-0.88512 6.76616,-2.64634l32.75091,-31.01548c3.71757,-3.53146 3.71757,-9.24864 -0.01911,-12.78011zm-17.43147,-24.57574c-2.03558,-4.59723 -7.61671,-6.78294 -12.49064,-4.87722l-42.80459,16.80833c-4.88349,1.91476 -7.18666,7.20744 -5.16063,11.8137c1.52908,3.47727 5.07462,5.56364 8.83042,5.56364c1.2137,0 2.46564,-0.21677 3.66023,-0.68642l42.80459,-16.80833c4.86437,-1.93282 7.1771,-7.21647 5.16063,-11.8137zm-6.17365,-29.0104c0,-4.99463 -4.27186,-9.02285 -9.55673,-9.02285l-46.35969,0.05419c-5.28487,0 -9.56629,4.04628 -9.54717,9.04091c0.00956,4.97657 4.29097,9.03188 9.55673,9.01382l46.36925,-0.05419c5.27531,0 9.55673,-4.06435 9.53762,-9.03188zm-49.27449,-40.85119l42.86193,16.70898c1.19459,0.47869 2.42741,0.68642 3.64111,0.68642c3.75579,0 7.32045,-2.0954 8.83997,-5.5817c2.02603,-4.61529 -0.30582,-9.90797 -5.19886,-11.79563l-42.84281,-16.70898c-4.88349,-1.89669 -10.46462,0.28902 -12.48109,4.89528c-2.02603,4.61529 0.31537,9.88088 5.17975,11.79563zm59.18482,-12.80721c1.86356,1.74315 4.29097,2.62828 6.73749,2.62828s4.9026,-0.88512 6.77572,-2.6644c3.73668,-3.5134 3.71757,-9.23961 -0.03823,-12.77108l-32.81781,-30.92516c-3.72712,-3.52243 -9.79565,-3.50437 -13.51321,0.0271c-3.73668,3.52243 -3.71757,9.24864 0.01911,12.77108l32.83692,30.93419zm27.01687,-21.37846c1.52908,3.46824 5.08418,5.55461 8.82086,5.55461c1.22326,0 2.46564,-0.2258 3.66978,-0.69545c4.87393,-1.91476 7.19622,-7.20744 5.16063,-11.80467l-17.81374,-40.45379c-2.02603,-4.60626 -7.62627,-6.78294 -12.5002,-4.86818c-4.87393,1.92379 -7.1771,7.21647 -5.15108,11.8137l17.81374,40.45379z" stroke-dasharray="null" stroke-width="null" fill="#ffff00"/>
 </g>
</svg>